<?xml version="1.0" encoding="UTF-8"?>
<svg id="Layer_2" data-name="Layer 2" xmlns="http://www.w3.org/2000/svg" viewBox="0 0 440.05 270.17">
  <defs>
    <style>
      .cls-1 {
        fill: #fff;
        stroke-width: 0px;
      }
    </style>
  </defs>
  <g id="Layer_2-2" data-name="Layer 2">
    <g id="Layer_1-2" data-name="Layer 1-2">
      <g>
        <path class="cls-1" d="M18.71,62.85c.9.4,1.9.75,3.01,1.05,1,.2,2.23.4,3.68.6,1.45.2,3.08.3,4.89.3,4.51,0,7.64-.73,9.4-2.18,1.75-1.45,2.63-3.33,2.63-5.64s-.95-3.96-2.86-5.26c-1.91-1.3-4.29-2.48-7.14-3.53-2.86-1.05-5.96-2.15-9.32-3.31-3.36-1.15-6.47-2.63-9.32-4.44-2.86-1.8-5.24-4.08-7.14-6.84-1.91-2.76-2.86-6.34-2.86-10.75,0-3.11.65-6.06,1.95-8.87,1.3-2.8,3.3-5.24,6-7.29,2.7-2.05,6.1-3.68,10.2-4.89,4.1-1.2,8.95-1.8,14.54-1.8,6,0,10.54.5,13.64,1.5,3.1,1,5.15,2.01,6.15,3.01.8.8,1.37,1.75,1.72,2.86.35,1.1.53,2.76.53,4.96v3.91c0,1-.05,2.06-.15,3.16-.2,1.91-.83,3.31-1.88,4.21-1.05.9-2.43,1.35-4.13,1.35s-3.03-.45-3.98-1.35c-.95-.9-1.78-2.3-2.48-4.21l-1.5-4.36c-.9-.2-1.91-.45-3.01-.75-.9-.2-1.98-.4-3.23-.6-1.25-.2-2.63-.3-4.13-.3-4.21,0-7.02.6-8.42,1.8s-2.1,2.81-2.1,4.81.95,3.63,2.86,4.89c1.9,1.25,4.29,2.38,7.14,3.38,2.86,1,5.96,2.08,9.32,3.23s6.47,2.66,9.32,4.51c2.86,1.86,5.24,4.21,7.14,7.07s2.86,6.54,2.86,11.05c0,3.31-.7,6.42-2.1,9.32-1.4,2.91-3.5,5.44-6.3,7.59-2.8,2.16-6.37,3.89-10.72,5.19s-9.42,1.95-15.22,1.95c-6.4,0-11.25-.55-14.55-1.65s-5.45-2.15-6.45-3.16c-.8-.8-1.38-1.75-1.73-2.86-.35-1.1-.52-2.76-.52-4.96v-4.21c0-1,.05-2.05.15-3.16.2-1.9.83-3.31,1.88-4.21,1.05-.9,2.43-1.35,4.13-1.35s3.03.45,3.98,1.35c.95.9,1.78,2.31,2.48,4.21l1.65,4.66h0Z"/>
        <path class="cls-1" d="M80.51,16.7l-6.01-1.35c-2.01-.5-3.43-1.23-4.28-2.18s-1.28-2.28-1.28-3.98c0-1.8.43-3.18,1.28-4.13.85-.95,2.28-1.73,4.28-2.33,1.8-.5,4.08-.98,6.84-1.43s5.39-.68,7.89-.68c4.51,0,7.59.83,9.25,2.48s2.48,4.74,2.48,9.25v32.78c0,6.52,1.15,11.08,3.46,13.68,2.3,2.61,5.71,3.91,10.22,3.91,2.3,0,4.36-.35,6.16-1.05s3.31-1.5,4.51-2.41c1.4-1.1,2.61-2.3,3.61-3.61V16.71l-6.92-1.5c-2.01-.5-3.43-1.2-4.29-2.1-.85-.9-1.28-2.2-1.28-3.91,0-1.8.43-3.18,1.28-4.13.85-.95,2.28-1.73,4.29-2.33,2.1-.6,4.51-1.1,7.22-1.5s5.51-.6,8.42-.6c4.51,0,7.59.83,9.25,2.48s2.48,4.74,2.48,9.25v49.47l6.16,1.05c2,.4,3.41,1.05,4.21,1.95s1.2,2.21,1.2,3.91-.45,3.03-1.35,3.98c-.9.95-2.31,1.78-4.21,2.48-2.01.7-4.21,1.28-6.62,1.73s-4.96.68-7.67.68c-3.51,0-6.07-.83-7.67-2.48-1.6-1.65-2.41-4.08-2.41-7.29v-1.95l-.3-.15c-1.2,2.31-2.86,4.36-4.96,6.16-1.8,1.6-4.21,3.03-7.22,4.29-3.01,1.25-6.77,1.88-11.28,1.88-8.62,0-15.24-2.35-19.85-7.07-4.61-4.71-6.92-11.73-6.92-21.05V16.73l.03-.03Z"/>
        <path class="cls-1" d="M178.09,16.7l-6.92-1.5c-2.01-.5-3.44-1.2-4.29-2.1-.85-.9-1.28-2.2-1.28-3.91,0-1.8.43-3.18,1.28-4.13.85-.95,2.28-1.73,4.29-2.33,2.1-.6,4.51-1.1,7.22-1.5s5.31-.6,7.82-.6c3.81,0,6.46.75,7.97,2.26,1.5,1.5,2.25,4.01,2.25,7.52v1.95l.3.15c1.2-2.3,2.86-4.36,4.96-6.16,1.8-1.5,4.18-2.91,7.14-4.21,2.96-1.3,6.69-1.95,11.2-1.95,8.72,0,15.44,2.43,20.15,7.29s7.07,12.05,7.07,21.58v33.08l5.71,1.8c2.11.7,3.56,1.5,4.36,2.41.8.9,1.2,2.21,1.2,3.91,0,1.8-.65,3.31-1.95,4.51-1.3,1.2-3.11,1.8-5.41,1.8h-27.96c-2.31,0-4.11-.6-5.41-1.8-1.3-1.2-1.96-2.71-1.96-4.51,0-1.7.4-3.01,1.2-3.91.8-.9,2.25-1.7,4.36-2.41l5.41-1.8v-28.27c0-6.71-1.2-11.45-3.61-14.21-2.41-2.76-5.92-4.13-10.53-4.13-2.31,0-4.34.38-6.09,1.13-1.76.75-3.23,1.58-4.44,2.48-1.41,1.1-2.61,2.26-3.61,3.46v39.54l5.41,1.8c2.11.7,3.56,1.5,4.36,2.41.8.9,1.2,2.21,1.2,3.91,0,1.8-.65,3.31-1.96,4.51-1.3,1.2-3.11,1.8-5.41,1.8h-28.87c-2.31,0-4.11-.6-5.41-1.8-1.3-1.2-1.96-2.71-1.96-4.51,0-1.7.4-2.98,1.2-3.83s2.3-1.63,4.51-2.33l6.46-1.95V16.74l.04-.04Z"/>
        <path class="cls-1" d="M275.51,16.7l-6.92-1.5c-2.01-.5-3.43-1.2-4.29-2.1-.85-.9-1.28-2.2-1.28-3.91,0-1.8.43-3.18,1.28-4.13.85-.95,2.28-1.73,4.29-2.33,2.1-.6,4.51-1.1,7.22-1.5s5.31-.6,7.82-.6c3.81,0,6.46.75,7.97,2.26,1.5,1.5,2.25,4.01,2.25,7.52v1.95l.3.15c1.2-2.3,2.86-4.36,4.96-6.16,1.8-1.5,4.18-2.91,7.14-4.21,2.96-1.3,6.69-1.95,11.2-1.95,8.72,0,15.43,2.43,20.15,7.29,4.71,4.86,7.07,12.05,7.07,21.58v33.08l5.71,1.8c2.1.7,3.56,1.5,4.36,2.41.8.9,1.2,2.21,1.2,3.91,0,1.8-.65,3.31-1.95,4.51-1.3,1.2-3.11,1.8-5.41,1.8h-27.97c-2.31,0-4.11-.6-5.41-1.8-1.3-1.2-1.96-2.71-1.96-4.51,0-1.7.4-3.01,1.2-3.91.8-.9,2.25-1.7,4.36-2.41l5.41-1.8v-28.27c0-6.71-1.2-11.45-3.61-14.21-2.41-2.76-5.92-4.13-10.52-4.13-2.31,0-4.34.38-6.09,1.13s-3.23,1.58-4.44,2.48c-1.41,1.1-2.61,2.26-3.61,3.46v39.54l5.41,1.8c2.11.7,3.56,1.5,4.36,2.41.8.9,1.2,2.21,1.2,3.91,0,1.8-.65,3.31-1.96,4.51-1.3,1.2-3.11,1.8-5.41,1.8h-28.87c-2.31,0-4.11-.6-5.41-1.8-1.3-1.2-1.96-2.71-1.96-4.51,0-1.7.4-2.98,1.2-3.83.8-.85,2.3-1.63,4.51-2.33l6.46-1.95V16.74l.04-.04Z"/>
        <path class="cls-1" d="M361.44,16.09l-2.56-1.05c-2.31-.9-3.91-2-4.81-3.31-.9-1.3-1.35-2.86-1.35-4.66,0-1.6.55-2.91,1.65-3.91s2.71-1.5,4.81-1.5h25.86c2.11,0,3.71.5,4.81,1.5s1.65,2.31,1.65,3.91c0,1.71-.45,3.11-1.35,4.21s-2.56,2.21-4.96,3.31l-2.56,1.2,10.98,29.02c.7,1.91,1.3,3.68,1.8,5.34.5,1.65,1,3.13,1.5,4.44.4,1.5.85,2.91,1.35,4.21h.3c.4-1.3.8-2.71,1.2-4.21.4-1.3.88-2.8,1.43-4.51.55-1.7,1.23-3.56,2.03-5.56l10.83-28.72-2.56-1.2c-2.41-1.1-4.06-2.2-4.96-3.31-.9-1.1-1.35-2.5-1.35-4.21,0-1.6.55-2.91,1.65-3.91s2.71-1.5,4.81-1.5h21.95c2.1,0,3.71.5,4.81,1.5s1.65,2.31,1.65,3.91c0,1.8-.45,3.36-1.35,4.66-.9,1.3-2.51,2.41-4.81,3.31l-2.56,1.05-20.75,50.82c-3.81,9.42-7.59,17.06-11.35,22.93s-7.47,10.42-11.13,13.68c-3.66,3.26-7.27,5.46-10.83,6.62-3.56,1.15-7.04,1.73-10.45,1.73-4.41,0-7.79-.93-10.15-2.78-2.36-1.86-3.53-4.44-3.53-7.74,0-2.91.73-5.19,2.18-6.84,1.45-1.65,3.18-2.48,5.19-2.48,1.1,0,2.05.08,2.86.23.8.15,1.6.35,2.41.6.8.25,1.7.45,2.71.6,1,.15,2.25.23,3.76.23,1.8,0,3.43-.28,4.89-.83,1.45-.55,2.81-1.35,4.06-2.41,1.25-1.05,2.41-2.38,3.46-3.98s2.08-3.51,3.08-5.71l-26.31-64.65v-.03Z"/>
        <path class="cls-1" d="M15.03,222.06c.9.4,1.9.75,3.01,1.05,1,.2,2.23.4,3.68.6s3.08.3,4.89.3c4.51,0,7.64-.73,9.4-2.18,1.75-1.45,2.63-3.33,2.63-5.64s-.95-3.96-2.86-5.26c-1.91-1.3-4.29-2.48-7.14-3.53-2.86-1.05-5.96-2.15-9.32-3.31-3.36-1.15-6.47-2.63-9.32-4.44-2.86-1.8-5.24-4.08-7.14-6.84-1.91-2.76-2.86-6.34-2.86-10.75,0-3.11.65-6.06,1.95-8.87,1.3-2.8,3.3-5.24,6-7.29,2.7-2.05,6.1-3.68,10.2-4.89,4.1-1.2,8.95-1.8,14.54-1.8,6,0,10.54.5,13.64,1.5s5.15,2.01,6.15,3.01c.8.8,1.37,1.75,1.72,2.86.35,1.1.53,2.76.53,4.96v3.91c0,1-.05,2.06-.15,3.16-.2,1.91-.83,3.31-1.88,4.21s-2.43,1.35-4.13,1.35-3.03-.45-3.98-1.35c-.95-.9-1.78-2.3-2.48-4.21l-1.5-4.36c-.9-.2-1.91-.45-3.01-.75-.9-.2-1.98-.4-3.23-.6s-2.63-.3-4.13-.3c-4.21,0-7.02.6-8.42,1.8-1.4,1.2-2.1,2.81-2.1,4.81s.95,3.63,2.86,4.89c1.9,1.25,4.29,2.38,7.14,3.38,2.86,1,5.96,2.08,9.32,3.23,3.36,1.15,6.47,2.66,9.32,4.51,2.86,1.86,5.24,4.21,7.14,7.07,1.9,2.86,2.86,6.54,2.86,11.05,0,3.31-.7,6.42-2.1,9.32-1.4,2.91-3.5,5.44-6.3,7.59-2.8,2.16-6.37,3.89-10.72,5.19s-9.42,1.96-15.22,1.96c-6.4,0-11.25-.55-14.55-1.65s-5.45-2.15-6.45-3.16c-.8-.8-1.38-1.75-1.73-2.86-.35-1.1-.52-2.76-.52-4.96v-4.21c0-1,.05-2.05.15-3.16.2-1.9.83-3.31,1.88-4.21,1.05-.9,2.43-1.35,4.13-1.35s3.03.45,3.98,1.35c.95.9,1.78,2.31,2.48,4.21l1.65,4.66h0Z"/>
        <path class="cls-1" d="M77.88,175.91l-6.01-1.35c-2.01-.5-3.43-1.23-4.28-2.18-.85-.95-1.28-2.28-1.28-3.98,0-1.8.43-3.18,1.28-4.13s2.28-1.73,4.28-2.33c.9-.3,1.95-.58,3.16-.83,1.2-.25,2.43-.47,3.68-.68,1.25-.2,2.53-.35,3.83-.45s2.56-.15,3.76-.15c3.61,0,6.16.75,7.67,2.25,1.5,1.5,2.26,4.01,2.26,7.52v1.96l.3.15c1.2-2.3,2.86-4.36,4.96-6.17,1.8-1.5,4.18-2.91,7.14-4.21s6.69-1.96,11.2-1.96c8.82,0,15.89,2.93,21.2,8.8,5.31,5.86,7.97,14.91,7.97,27.14,0,6.62-.95,12.53-2.86,17.74s-4.66,9.62-8.27,13.23c-3.61,3.61-8.04,6.37-13.31,8.27-5.26,1.9-11.25,2.86-17.97,2.86-1.2,0-2.31-.03-3.31-.08s-1.91-.18-2.71-.38c-.9-.1-1.65-.25-2.25-.45l-.3.3c.1,1.1.17,2.23.23,3.38.05,1.15.08,2.58.08,4.29v11.28l6.46,1.95c2.2.7,3.71,1.48,4.51,2.33.8.85,1.2,2.13,1.2,3.83,0,1.8-.65,3.31-1.95,4.51s-3.11,1.8-5.41,1.8h-29.17c-2.31,0-4.11-.6-5.41-1.8-1.3-1.2-1.95-2.71-1.95-4.51s.38-3.01,1.13-3.91,2.08-1.65,3.98-2.26l6.16-1.95v-79.84h0ZM98.33,220.11c.8.6,1.75,1.1,2.86,1.5,1,.4,2.18.73,3.53.98s2.98.38,4.89.38c5.61,0,10.07-1.93,13.38-5.79,3.31-3.86,4.96-10.35,4.96-19.47,0-8.22-1.48-14.11-4.44-17.67-2.96-3.56-6.64-5.34-11.05-5.34-2.31,0-4.34.38-6.09,1.13s-3.23,1.58-4.44,2.48c-1.4,1.1-2.61,2.25-3.61,3.46v38.34h0Z"/>
        <path class="cls-1" d="M170.49,175.91l-6.92-1.5c-2.01-.5-3.44-1.2-4.29-2.11-.85-.9-1.28-2.2-1.28-3.91,0-1.8.43-3.18,1.28-4.13s2.28-1.73,4.29-2.33c2.1-.6,4.51-1.1,7.22-1.5s5.51-.6,8.42-.6c4.51,0,7.59.83,9.25,2.48,1.65,1.65,2.48,4.74,2.48,9.25v49.77l6.16,1.8c1.9.5,3.23,1.2,3.98,2.11.75.9,1.13,2.1,1.13,3.61,0,2.01-.68,3.66-2.03,4.96s-3.18,1.95-5.49,1.95h-29.02c-2.31,0-4.11-.6-5.41-1.8-1.3-1.2-1.95-2.71-1.95-4.51,0-1.7.4-2.98,1.2-3.83.8-.85,2.3-1.63,4.51-2.33l6.46-1.95v-45.43ZM167.79,140.57c0-3.61,1.2-6.62,3.61-9.02,2.41-2.41,5.41-3.61,9.02-3.61s6.56,1.15,8.87,3.46c2.3,2.31,3.46,5.26,3.46,8.87s-1.2,6.62-3.61,9.02c-2.41,2.41-5.41,3.61-9.02,3.61s-6.57-1.15-8.87-3.46c-2.31-2.3-3.46-5.26-3.46-8.87Z"/>
        <path class="cls-1" d="M219.66,175.91l-6.92-1.5c-2.01-.5-3.43-1.2-4.29-2.11-.85-.9-1.28-2.2-1.28-3.91,0-1.8.43-3.18,1.28-4.13s2.28-1.73,4.29-2.33c2.1-.6,4.51-1.1,7.22-1.5s5.31-.6,7.82-.6c3.81,0,6.46.75,7.97,2.25,1.5,1.5,2.25,4.01,2.25,7.52v4.21l.3.15c1-2.3,2.2-4.38,3.61-6.24,1.4-1.85,2.98-3.43,4.74-4.74,1.75-1.3,3.61-2.3,5.56-3.01,1.95-.7,4.03-1.05,6.24-1.05,2.61,0,4.61.7,6.01,2.11,1.4,1.4,2.11,3.41,2.11,6.01,0,2.21-.23,4.13-.68,5.79-.45,1.65-1.05,3.03-1.8,4.13s-1.58,1.93-2.48,2.48c-.9.55-1.8.83-2.71.83-.7,0-1.33-.1-1.88-.3-.55-.2-1.08-.4-1.58-.6s-1.03-.4-1.58-.6-1.23-.3-2.03-.3c-2.11,0-4.16.45-6.17,1.35s-3.86,2.46-5.56,4.66v36.84l7.22,1.95c2.2.6,3.71,1.35,4.51,2.26.8.9,1.2,2.21,1.2,3.91,0,1.8-.65,3.31-1.95,4.51-1.3,1.2-3.11,1.8-5.41,1.8h-30.82c-2.31,0-4.11-.6-5.41-1.8-1.3-1.2-1.96-2.71-1.96-4.51,0-1.7.4-2.98,1.2-3.83.8-.85,2.3-1.63,4.51-2.33l6.46-1.95v-45.41h.01Z"/>
        <path class="cls-1" d="M283.71,175.91l-6.92-1.5c-2.01-.5-3.43-1.2-4.29-2.11-.85-.9-1.28-2.2-1.28-3.91,0-1.8.43-3.18,1.28-4.13s2.28-1.73,4.29-2.33c2.1-.6,4.51-1.1,7.22-1.5s5.51-.6,8.42-.6c4.51,0,7.59.83,9.25,2.48s2.48,4.74,2.48,9.25v49.77l6.16,1.8c1.9.5,3.23,1.2,3.98,2.11.75.9,1.13,2.1,1.13,3.61,0,2.01-.68,3.66-2.03,4.96s-3.18,1.95-5.49,1.95h-29.02c-2.31,0-4.11-.6-5.41-1.8-1.3-1.2-1.96-2.71-1.96-4.51,0-1.7.4-2.98,1.2-3.83.8-.85,2.3-1.63,4.51-2.33l6.46-1.95v-45.41l.02-.02ZM281,140.57c0-3.61,1.2-6.62,3.61-9.02s5.41-3.61,9.02-3.61,6.56,1.15,8.87,3.46c2.3,2.31,3.46,5.26,3.46,8.87s-1.2,6.62-3.61,9.02-5.41,3.61-9.02,3.61-6.57-1.15-8.87-3.46c-2.31-2.3-3.46-5.26-3.46-8.87Z"/>
        <path class="cls-1" d="M330.17,174.85h-5.11c-4.61,0-6.92-2-6.92-6.01,0-2.41.73-4.33,2.18-5.79s3.53-2.18,6.24-2.18h4.06l2.71-10.68c.8-3.31,1.98-5.71,3.53-7.22,1.55-1.5,3.78-2.25,6.69-2.25,2.3,0,4.06.58,5.26,1.73,1.2,1.15,1.8,2.83,1.8,5.04v13.38h12.93c4.51,0,6.77,2.01,6.77,6.01,0,2.51-.7,4.46-2.1,5.86s-3.51,2.11-6.32,2.11h-11.28v34.13c0,4.81.7,8.17,2.11,10.07,1.4,1.91,3.41,2.86,6.01,2.86,1.9,0,3.41-.15,4.51-.45,1.1-.3,2.2-.45,3.31-.45,1.4,0,2.5.43,3.31,1.28.8.85,1.2,2.08,1.2,3.68,0,1.1-.23,2.13-.68,3.08-.45.95-1.08,1.83-1.88,2.63-.9.9-2.73,1.96-5.49,3.16-2.76,1.2-6.64,1.8-11.65,1.8-7.72,0-13.18-2.08-16.39-6.24s-4.81-9.85-4.81-17.06v-38.49h.01Z"/>
        <path class="cls-1" d="M395.12,222.06c.9.4,1.9.75,3.01,1.05,1,.2,2.23.4,3.68.6,1.45.2,3.08.3,4.89.3,4.51,0,7.64-.73,9.4-2.18,1.75-1.45,2.63-3.33,2.63-5.64s-.95-3.96-2.86-5.26c-1.91-1.3-4.29-2.48-7.14-3.53-2.86-1.05-5.96-2.15-9.32-3.31-3.36-1.15-6.46-2.63-9.32-4.44-2.86-1.8-5.24-4.08-7.14-6.84-1.91-2.76-2.86-6.34-2.86-10.75,0-3.11.65-6.06,1.95-8.87,1.3-2.8,3.3-5.24,6-7.29,2.7-2.05,6.1-3.68,10.2-4.89,4.1-1.2,8.95-1.8,14.54-1.8,6,0,10.54.5,13.64,1.5s5.15,2.01,6.15,3.01c.8.8,1.37,1.75,1.72,2.86.35,1.1.53,2.76.53,4.96v3.91c0,1-.05,2.06-.15,3.16-.2,1.91-.83,3.31-1.88,4.21-1.05.9-2.43,1.35-4.13,1.35s-3.03-.45-3.98-1.35-1.78-2.3-2.48-4.21l-1.5-4.36c-.9-.2-1.91-.45-3.01-.75-.9-.2-1.98-.4-3.23-.6s-2.63-.3-4.13-.3c-4.21,0-7.02.6-8.42,1.8-1.4,1.2-2.1,2.81-2.1,4.81s.95,3.63,2.86,4.89c1.9,1.25,4.29,2.38,7.14,3.38,2.86,1,5.96,2.08,9.32,3.23,3.36,1.15,6.46,2.66,9.32,4.51,2.86,1.86,5.24,4.21,7.14,7.07,1.9,2.86,2.86,6.54,2.86,11.05,0,3.31-.7,6.42-2.1,9.32-1.4,2.91-3.5,5.44-6.3,7.59-2.8,2.16-6.37,3.89-10.72,5.19s-9.42,1.96-15.22,1.96c-6.4,0-11.25-.55-14.55-1.65s-5.45-2.15-6.45-3.16c-.8-.8-1.38-1.75-1.73-2.86-.35-1.1-.52-2.76-.52-4.96v-4.21c0-1,.05-2.05.15-3.16.2-1.9.83-3.31,1.88-4.21,1.05-.9,2.43-1.35,4.13-1.35s3.03.45,3.98,1.35,1.78,2.31,2.48,4.21l1.65,4.66h0Z"/>
      </g>
    </g>
  </g>
</svg>